<mxfile host="Electron" modified="2024-11-21T06:28:10.591Z" agent="Mozilla/5.0 (Windows NT 10.0; Win64; x64) AppleWebKit/537.36 (KHTML, like Gecko) draw.io/21.1.2 Chrome/106.0.5249.199 Electron/21.4.3 Safari/537.36" etag="meJVRj0LughAraVj5D9q" version="21.1.2" type="device">
  <diagram name="Page-1" id="ZJNgZEiECKDGYXHsDDT8">
    <mxGraphModel dx="2044" dy="1184" grid="1" gridSize="10" guides="1" tooltips="1" connect="1" arrows="1" fold="1" page="1" pageScale="1" pageWidth="1700" pageHeight="1100" math="0" shadow="0">
      <root>
        <mxCell id="0" />
        <mxCell id="1" parent="0" />
        <mxCell id="WqUYw4biqrxZUUVSya5a-3" value="&lt;font style=&quot;font-size: 18px;&quot;&gt;OUTPUT &quot;Hello World.&quot;&lt;/font&gt;" style="shape=parallelogram;perimeter=parallelogramPerimeter;whiteSpace=wrap;html=1;fixedSize=1;" parent="1" vertex="1">
          <mxGeometry x="680" y="260" width="310" height="100" as="geometry" />
        </mxCell>
        <mxCell id="WqUYw4biqrxZUUVSya5a-4" value="" style="endArrow=classic;html=1;rounded=0;entryX=0.5;entryY=0;entryDx=0;entryDy=0;exitX=0.5;exitY=1;exitDx=0;exitDy=0;exitPerimeter=0;" parent="1" source="YIWK8q2OQYlHiDbLGR7j-1" target="WqUYw4biqrxZUUVSya5a-3" edge="1">
          <mxGeometry width="50" height="50" relative="1" as="geometry">
            <mxPoint x="835" y="190" as="sourcePoint" />
            <mxPoint x="745" y="300" as="targetPoint" />
          </mxGeometry>
        </mxCell>
        <mxCell id="WqUYw4biqrxZUUVSya5a-5" value="" style="endArrow=classic;html=1;rounded=0;entryX=0.5;entryY=0;entryDx=0;entryDy=0;exitX=0.5;exitY=1;exitDx=0;exitDy=0;entryPerimeter=0;" parent="1" source="WqUYw4biqrxZUUVSya5a-3" target="YIWK8q2OQYlHiDbLGR7j-2" edge="1">
          <mxGeometry width="50" height="50" relative="1" as="geometry">
            <mxPoint x="545" y="500" as="sourcePoint" />
            <mxPoint x="835" y="480" as="targetPoint" />
          </mxGeometry>
        </mxCell>
        <mxCell id="YIWK8q2OQYlHiDbLGR7j-1" value="&lt;font style=&quot;font-size: 18px;&quot;&gt;Start&lt;/font&gt;" style="strokeWidth=2;html=1;shape=mxgraph.flowchart.terminator;whiteSpace=wrap;" vertex="1" parent="1">
          <mxGeometry x="785" y="120" width="100" height="60" as="geometry" />
        </mxCell>
        <mxCell id="YIWK8q2OQYlHiDbLGR7j-2" value="&lt;font style=&quot;font-size: 18px;&quot;&gt;Stop&lt;/font&gt;" style="strokeWidth=2;html=1;shape=mxgraph.flowchart.terminator;whiteSpace=wrap;" vertex="1" parent="1">
          <mxGeometry x="785" y="440" width="100" height="60" as="geometry" />
        </mxCell>
      </root>
    </mxGraphModel>
  </diagram>
</mxfile>
